<svg width="42" height="41" viewBox="0 0 42 41" fill="none" xmlns="http://www.w3.org/2000/svg">
<path d="M21.0601 0C17.0055 0 13.0421 1.2023 9.67088 3.45487C6.29967 5.70744 3.67213 8.9091 2.12054 12.655C0.568941 16.4009 0.162973 20.5227 0.95397 24.4993C1.74497 28.476 3.6974 32.1287 6.56438 34.9957C9.43135 37.8627 13.0841 39.8151 17.0607 40.6061C21.0373 41.3971 25.1592 40.9911 28.9051 39.4395C32.651 37.8879 35.8526 35.2604 38.1052 31.8892C40.3578 28.518 41.5601 24.5545 41.5601 20.5C41.5539 15.0649 39.3921 9.85427 35.549 6.01111C31.7058 2.16795 26.4951 0.00615622 21.0601 0V0ZM21.0601 37.8461C17.6293 37.8461 14.2756 36.8288 11.4231 34.9228C8.5705 33.0168 6.3472 30.3077 5.03431 27.1381C3.72142 23.9685 3.37791 20.4808 4.04721 17.1159C4.71652 13.7511 6.36858 10.6603 8.79448 8.23442C11.2204 5.80851 14.3112 4.15645 17.676 3.48715C21.0408 2.81784 24.5286 3.16135 27.6981 4.47424C30.8677 5.78713 33.5768 8.01043 35.4829 10.863C37.3889 13.7156 38.4062 17.0693 38.4062 20.5C38.401 25.0989 36.5718 29.5079 33.3199 32.7598C30.068 36.0117 25.6589 37.8409 21.0601 37.8461V37.8461ZM11.5985 16.5577C11.5985 16.0899 11.7373 15.6325 11.9972 15.2436C12.2571 14.8546 12.6265 14.5514 13.0587 14.3724C13.4909 14.1933 13.9665 14.1465 14.4254 14.2378C14.8842 14.329 15.3057 14.5543 15.6365 14.8851C15.9673 15.2159 16.1926 15.6374 16.2838 16.0962C16.3751 16.5551 16.3283 17.0307 16.1492 17.4629C15.9702 17.8951 15.667 18.2645 15.278 18.5244C14.8891 18.7843 14.4317 18.9231 13.9639 18.9231C13.3366 18.9231 12.7349 18.6739 12.2913 18.2303C11.8477 17.7867 11.5985 17.185 11.5985 16.5577ZM25.7908 16.5577C25.7908 16.0899 25.9296 15.6325 26.1895 15.2436C26.4494 14.8546 26.8188 14.5514 27.251 14.3724C27.6832 14.1933 28.1588 14.1465 28.6177 14.2378C29.0765 14.329 29.498 14.5543 29.8288 14.8851C30.1596 15.2159 30.3849 15.6374 30.4762 16.0962C30.5674 16.5551 30.5206 17.0307 30.3415 17.4629C30.1625 17.8951 29.8593 18.2645 29.4704 18.5244C29.0814 18.7843 28.624 18.9231 28.1562 18.9231C27.5289 18.9231 26.9272 18.6739 26.4836 18.2303C26.04 17.7867 25.7908 17.185 25.7908 16.5577ZM30.6211 29.1721C30.7268 29.3514 30.796 29.5499 30.8246 29.7561C30.8532 29.9623 30.8407 30.1722 30.7878 30.3735C30.7349 30.5749 30.6426 30.7637 30.5164 30.9292C30.3901 31.0948 30.2323 31.2336 30.0521 31.3379C29.8719 31.4421 29.6728 31.5096 29.4664 31.5365C29.26 31.5634 29.0502 31.5491 28.8493 31.4946C28.6484 31.44 28.4603 31.3462 28.2959 31.2186C28.1314 31.091 27.9938 30.932 27.8911 30.751C27.1988 29.5519 26.2031 28.5561 25.004 27.8638C23.8049 27.1715 22.4447 26.8071 21.0601 26.8071C19.6755 26.8071 18.3153 27.1715 17.1162 27.8638C15.9171 28.5561 14.9213 29.5519 14.229 30.751C14.1263 30.932 13.9887 31.091 13.8243 31.2186C13.6598 31.3462 13.4717 31.44 13.2708 31.4946C13.0699 31.5491 12.8602 31.5634 12.6537 31.5365C12.4473 31.5096 12.2482 31.4421 12.068 31.3379C11.8878 31.2336 11.73 31.0948 11.6038 30.9292C11.4775 30.7637 11.3852 30.5749 11.3323 30.3735C11.2794 30.1722 11.2669 29.9623 11.2955 29.7561C11.3241 29.5499 11.3933 29.3514 11.499 29.1721C12.4683 27.4941 13.862 26.1008 15.5403 25.1321C17.2186 24.1634 19.1223 23.6534 21.0601 23.6534C22.9979 23.6534 24.9015 24.1634 26.5798 25.1321C28.2581 26.1008 29.6519 27.4941 30.6211 29.1721V29.1721Z" fill="#836370"/>
<path fill-rule="evenodd" clip-rule="evenodd" d="M21.0601 37.8461C17.6293 37.8461 14.2756 36.8288 11.4231 34.9228C8.5705 33.0168 6.3472 30.3077 5.03431 27.1381C3.72142 23.9685 3.37791 20.4808 4.04721 17.1159C4.71652 13.7511 6.36858 10.6603 8.79448 8.23442C11.2204 5.80851 14.3112 4.15645 17.676 3.48715C21.0408 2.81784 24.5286 3.16135 27.6981 4.47424C30.8677 5.78713 33.5768 8.01043 35.4829 10.863C37.3889 13.7155 38.4062 17.0692 38.4062 20.5C38.401 25.0989 36.5718 29.5079 33.3199 32.7598C30.068 36.0117 25.6589 37.8409 21.0601 37.8461ZM11.9972 15.2436C11.7373 15.6325 11.5985 16.0899 11.5985 16.5577C11.5985 17.185 11.8477 17.7867 12.2913 18.2303C12.7349 18.6739 13.3366 18.9231 13.9639 18.9231C14.4317 18.9231 14.8891 18.7843 15.278 18.5244C15.667 18.2645 15.9702 17.8951 16.1492 17.4629C16.3283 17.0307 16.3751 16.5551 16.2838 16.0962C16.1926 15.6374 15.9673 15.2159 15.6365 14.8851C15.3057 14.5543 14.8842 14.329 14.4254 14.2378C13.9665 14.1465 13.4909 14.1933 13.0587 14.3724C12.6265 14.5514 12.2571 14.8546 11.9972 15.2436ZM26.1895 15.2436C25.9296 15.6325 25.7908 16.0899 25.7908 16.5577C25.7908 17.185 26.04 17.7867 26.4836 18.2303C26.9272 18.6739 27.5289 18.9231 28.1562 18.9231C28.624 18.9231 29.0814 18.7843 29.4704 18.5244C29.8593 18.2645 30.1625 17.8951 30.3415 17.4629C30.5206 17.0307 30.5674 16.5551 30.4761 16.0962C30.3849 15.6374 30.1596 15.2159 29.8288 14.8851C29.498 14.5543 29.0765 14.329 28.6177 14.2378C28.1588 14.1465 27.6832 14.1933 27.251 14.3724C26.8188 14.5514 26.4494 14.8546 26.1895 15.2436ZM30.8246 29.7561C30.796 29.5499 30.7268 29.3514 30.6211 29.1721C29.6519 27.4941 28.2581 26.1008 26.5798 25.1321C24.9015 24.1634 22.9979 23.6534 21.0601 23.6534C19.1223 23.6534 17.2186 24.1634 15.5403 25.1321C13.862 26.1008 12.4683 27.4941 11.499 29.1721C11.3933 29.3514 11.3241 29.5499 11.2955 29.7561C11.2669 29.9623 11.2794 30.1722 11.3323 30.3735C11.3852 30.5749 11.4775 30.7637 11.6038 30.9292C11.73 31.0948 11.8878 31.2336 12.068 31.3379C12.2482 31.4421 12.4473 31.5096 12.6537 31.5365C12.8602 31.5634 13.0699 31.5491 13.2708 31.4946C13.4717 31.44 13.6598 31.3462 13.8243 31.2186C13.9887 31.091 14.1263 30.932 14.229 30.751C14.9213 29.5519 15.9171 28.5561 17.1162 27.8638C18.3153 27.1715 19.6755 26.8071 21.0601 26.8071C22.4447 26.8071 23.8049 27.1715 25.004 27.8638C26.2031 28.5561 27.1988 29.5519 27.8911 30.751C27.9938 30.932 28.1314 31.091 28.2959 31.2186C28.4603 31.3462 28.6484 31.44 28.8493 31.4946C29.0502 31.5491 29.26 31.5634 29.4664 31.5365C29.6728 31.5096 29.8719 31.4421 30.0521 31.3379C30.2323 31.2336 30.3901 31.0948 30.5164 30.9292C30.6426 30.7637 30.7349 30.5749 30.7878 30.3735C30.8407 30.1722 30.8532 29.9623 30.8246 29.7561Z" fill="current"/>
</svg>
