<svg width="41" height="41" viewBox="0 0 41 41" fill="none" xmlns="http://www.w3.org/2000/svg">
<path d="M20.5 0C16.4455 0 12.482 1.2023 9.11082 3.45487C5.73961 5.70744 3.11207 8.9091 1.56048 12.655C0.0088823 16.4009 -0.397086 20.5227 0.393911 24.4993C1.18491 28.476 3.13734 32.1287 6.00432 34.9957C8.87129 37.8627 12.524 39.8151 16.5007 40.6061C20.4773 41.3971 24.5991 40.9911 28.345 39.4395C32.0909 37.8879 35.2926 35.2604 37.5451 31.8892C39.7977 28.518 41 24.5545 41 20.5C40.9938 15.0649 38.8321 9.85427 34.9889 6.01111C31.1457 2.16795 25.9351 0.00615622 20.5 0ZM20.5 37.8461C17.0693 37.8461 13.7156 36.8288 10.863 34.9228C8.01044 33.0168 5.78714 30.3077 4.47425 27.1381C3.16136 23.9685 2.81785 20.4808 3.48716 17.1159C4.15646 13.7511 5.80852 10.6603 8.23442 8.23442C10.6603 5.80851 13.7511 4.15645 17.1159 3.48715C20.4808 2.81784 23.9685 3.16135 27.1381 4.47424C30.3077 5.78713 33.0168 8.01043 34.9228 10.863C36.8288 13.7155 37.8462 17.0693 37.8462 20.5C37.8409 25.0989 36.0117 29.5079 32.7598 32.7598C29.5079 36.0117 25.0989 37.8409 20.5 37.8461ZM11.0385 16.5577C11.0385 16.0899 11.1772 15.6325 11.4371 15.2436C11.697 14.8546 12.0664 14.5514 12.4987 14.3724C12.9309 14.1933 13.4065 14.1465 13.8653 14.2378C14.3242 14.329 14.7456 14.5543 15.0764 14.8851C15.4072 15.2159 15.6325 15.6374 15.7238 16.0962C15.8151 16.5551 15.7682 17.0307 15.5892 17.4629C15.4102 17.8951 15.107 18.2645 14.718 18.5244C14.329 18.7843 13.8717 18.9231 13.4039 18.9231C12.7765 18.9231 12.1749 18.6739 11.7313 18.2303C11.2877 17.7867 11.0385 17.185 11.0385 16.5577ZM31.5385 16.5577C31.5385 16.9759 31.3723 17.377 31.0766 17.6727C30.7809 17.9685 30.3798 18.1346 29.9615 18.1346H25.2308C24.8125 18.1346 24.4114 17.9685 24.1157 17.6727C23.82 17.377 23.6539 16.9759 23.6539 16.5577C23.6539 16.1395 23.82 15.7384 24.1157 15.4426C24.4114 15.1469 24.8125 14.9808 25.2308 14.9808H29.9615C30.3798 14.9808 30.7809 15.1469 31.0766 15.4426C31.3723 15.7384 31.5385 16.1395 31.5385 16.5577ZM30.0611 26.0198C29.0918 27.6978 27.698 29.0911 26.0197 30.0598C24.3415 31.0285 22.4378 31.5385 20.5 31.5385C18.5622 31.5385 16.6586 31.0285 14.9803 30.0598C13.302 29.0911 11.9082 27.6978 10.9389 26.0198C10.7336 25.658 10.6796 25.2298 10.7887 24.8283C10.8977 24.4269 11.1609 24.0848 11.521 23.8766C11.8811 23.6683 12.3089 23.6108 12.7112 23.7165C13.1135 23.8222 13.4578 24.0826 13.669 24.4409C14.3613 25.64 15.357 26.6358 16.5561 27.3281C17.7552 28.0204 19.1154 28.3848 20.5 28.3848C21.8846 28.3848 23.2448 28.0204 24.4439 27.3281C25.643 26.6358 26.6387 25.64 27.331 24.4409C27.4338 24.2599 27.5713 24.1009 27.7358 23.9733C27.9003 23.8457 28.0884 23.7519 28.2893 23.6973C28.4902 23.6428 28.6999 23.6285 28.9063 23.6554C29.1128 23.6823 29.3118 23.7498 29.492 23.854C29.6723 23.9583 29.83 24.0971 29.9563 24.2627C30.0826 24.4282 30.1748 24.617 30.2277 24.8184C30.2806 25.0197 30.2931 25.2296 30.2645 25.4358C30.2359 25.642 30.1668 25.8405 30.0611 26.0198Z" fill="#836370" />
<path fill-rule="evenodd" clip-rule="evenodd" d="M20.5 37.8461C17.0693 37.8461 13.7156 36.8288 10.863 34.9228C8.01044 33.0168 5.78714 30.3077 4.47425 27.1381C3.16136 23.9685 2.81785 20.4808 3.48716 17.1159C4.15646 13.7511 5.80852 10.6603 8.23442 8.23442C10.6603 5.80851 13.7511 4.15645 17.1159 3.48715C20.4808 2.81784 23.9685 3.16135 27.1381 4.47424C30.3077 5.78713 33.0168 8.01043 34.9228 10.863C36.8288 13.7155 37.8462 17.0693 37.8462 20.5C37.8409 25.0989 36.0117 29.5079 32.7598 32.7598C29.5079 36.0117 25.0989 37.8409 20.5 37.8461ZM11.4371 15.2436C11.1772 15.6325 11.0385 16.0899 11.0385 16.5577C11.0385 17.185 11.2877 17.7867 11.7313 18.2303C12.1749 18.6739 12.7765 18.9231 13.4039 18.9231C13.8717 18.9231 14.329 18.7843 14.718 18.5244C15.107 18.2645 15.4102 17.8951 15.5892 17.4629C15.7682 17.0307 15.8151 16.5551 15.7238 16.0962C15.6325 15.6374 15.4072 15.2159 15.0764 14.8851C14.7456 14.5543 14.3242 14.329 13.8653 14.2378C13.4065 14.1465 12.9309 14.1933 12.4987 14.3724C12.0664 14.5514 11.697 14.8546 11.4371 15.2436ZM31.0766 17.6727C31.3723 17.377 31.5385 16.9759 31.5385 16.5577C31.5385 16.1395 31.3723 15.7384 31.0766 15.4426C30.7809 15.1469 30.3798 14.9808 29.9615 14.9808H25.2308C24.8125 14.9808 24.4114 15.1469 24.1157 15.4426C23.82 15.7384 23.6539 16.1395 23.6539 16.5577C23.6539 16.9759 23.82 17.377 24.1157 17.6727C24.4114 17.9685 24.8125 18.1346 25.2308 18.1346H29.9615C30.3798 18.1346 30.7809 17.9685 31.0766 17.6727ZM26.0197 30.0598C27.698 29.0911 29.0918 27.6978 30.0611 26.0198C30.1668 25.8405 30.2359 25.642 30.2645 25.4358C30.2931 25.2296 30.2806 25.0197 30.2277 24.8184C30.1748 24.617 30.0826 24.4282 29.9563 24.2627C29.83 24.0971 29.6723 23.9583 29.492 23.854C29.3118 23.7498 29.1128 23.6823 28.9063 23.6554C28.6999 23.6285 28.4902 23.6428 28.2893 23.6973C28.0884 23.7519 27.9003 23.8457 27.7358 23.9733C27.5713 24.1009 27.4338 24.2599 27.331 24.4409C26.6387 25.64 25.643 26.6358 24.4439 27.3281C23.2448 28.0204 21.8846 28.3848 20.5 28.3848C19.1154 28.3848 17.7552 28.0204 16.5561 27.3281C15.357 26.6358 14.3613 25.64 13.669 24.4409C13.4578 24.0826 13.1135 23.8222 12.7112 23.7165C12.3089 23.6108 11.8811 23.6683 11.521 23.8766C11.1609 24.0848 10.8977 24.4269 10.7887 24.8283C10.6796 25.2298 10.7336 25.658 10.9389 26.0198C11.9082 27.6978 13.302 29.0911 14.9803 30.0598C16.6586 31.0285 18.5622 31.5385 20.5 31.5385C22.4378 31.5385 24.3415 31.0285 26.0197 30.0598Z" fill="current"/>
</svg>
