<svg width="42" height="41" viewBox="0 0 42 41" fill="none" xmlns="http://www.w3.org/2000/svg">
<path d="M21.4602 0C17.4057 0 13.4422 1.2023 10.071 3.45487C6.69982 5.70744 4.07228 8.9091 2.52068 12.655C0.969087 16.4009 0.563119 20.5227 1.35412 24.4993C2.14511 28.476 4.09755 32.1287 6.96452 34.9957C9.8315 37.8627 13.4842 39.8151 17.4609 40.6061C21.4375 41.3971 25.5593 40.9911 29.3052 39.4395C33.0511 37.8879 36.2528 35.2604 38.5053 31.8892C40.7579 28.518 41.9602 24.5545 41.9602 20.5C41.954 15.0649 39.7923 9.85427 35.9491 6.01111C32.1059 2.16795 26.8953 0.00615622 21.4602 0ZM21.4602 37.8461C18.0295 37.8461 14.6758 36.8288 11.8232 34.9228C8.97065 33.0168 6.74735 30.3077 5.43446 27.1381C4.12157 23.9685 3.77806 20.4808 4.44736 17.1159C5.11667 13.7511 6.76873 10.6603 9.19463 8.23442C11.6205 5.80851 14.7113 4.15645 18.0761 3.48715C21.441 2.81784 24.9287 3.16135 28.0983 4.47424C31.2679 5.78713 33.977 8.01043 35.883 10.863C37.789 13.7156 38.8064 17.0693 38.8064 20.5C38.8011 25.0989 36.9719 29.5079 33.72 32.7598C30.4681 36.0117 26.0591 37.8409 21.4602 37.8461ZM23.8256 30.75C23.8256 31.2178 23.6869 31.6751 23.427 32.0641C23.167 32.4531 22.7976 32.7563 22.3654 32.9353C21.9332 33.1144 21.4576 33.1612 20.9987 33.0699C20.5399 32.9787 20.1184 32.7534 19.7876 32.4226C19.4568 32.0918 19.2315 31.6703 19.1403 31.2115C19.049 30.7526 19.0958 30.277 19.2749 29.8448C19.4539 29.4126 19.7571 29.0432 20.1461 28.7833C20.5351 28.5233 20.9924 28.3846 21.4602 28.3846C22.0875 28.3846 22.6892 28.6338 23.1328 29.0774C23.5764 29.521 23.8256 30.1227 23.8256 30.75ZM33.6138 19.3849C33.7602 19.5313 33.8763 19.7052 33.9556 19.8965C34.0348 20.0878 34.0756 20.2929 34.0756 20.5C34.0756 20.7071 34.0348 20.9121 33.9556 21.1035C33.8763 21.2948 33.7602 21.4686 33.6138 21.6151C33.4673 21.7615 33.2935 21.8777 33.1021 21.9569C32.9108 22.0362 32.7058 22.077 32.4987 22.077C32.2916 22.077 32.0865 22.0362 31.8952 21.9569C31.7039 21.8777 31.53 21.7615 31.3836 21.6151L29.3448 19.5761L27.3061 21.6151C27.1596 21.7615 26.9858 21.8777 26.7945 21.9569C26.6031 22.0362 26.3981 22.077 26.191 22.077C25.9839 22.077 25.7788 22.0362 25.5875 21.9569C25.3962 21.8777 25.2223 21.7615 25.0759 21.6151C24.9295 21.4686 24.8133 21.2948 24.7341 21.1035C24.6548 20.9121 24.614 20.7071 24.614 20.5C24.614 20.2929 24.6548 20.0878 24.7341 19.8965C24.8133 19.7052 24.9295 19.5313 25.0759 19.3849L27.1149 17.3462L25.0759 15.3074C24.7802 15.0116 24.614 14.6105 24.614 14.1923C24.614 13.7741 24.7802 13.373 25.0759 13.0772C25.3716 12.7815 25.7727 12.6153 26.191 12.6153C26.6092 12.6153 27.0103 12.7815 27.3061 13.0772L29.3448 15.1162L31.3836 13.0772C31.53 12.9308 31.7039 12.8146 31.8952 12.7354C32.0865 12.6561 32.2916 12.6153 32.4987 12.6153C32.7058 12.6153 32.9108 12.6561 33.1021 12.7354C33.2935 12.8146 33.4673 12.9308 33.6138 13.0772C33.7602 13.2237 33.8763 13.3975 33.9556 13.5888C34.0348 13.7802 34.0756 13.9852 34.0756 14.1923C34.0756 14.3994 34.0348 14.6045 33.9556 14.7958C33.8763 14.9871 33.7602 15.161 33.6138 15.3074L31.5748 17.3462L33.6138 19.3849ZM17.8445 15.3074L15.8056 17.3462L17.8445 19.3849C18.1403 19.6807 18.3064 20.0818 18.3064 20.5C18.3064 20.9182 18.1403 21.3193 17.8445 21.6151C17.5488 21.9108 17.1477 22.077 16.7294 22.077C16.3112 22.077 15.9101 21.9108 15.6144 21.6151L13.5756 19.5761L11.5368 21.6151C11.2411 21.9108 10.84 22.077 10.4218 22.077C10.0035 22.077 9.60241 21.9108 9.30667 21.6151C9.01093 21.3193 8.84479 20.9182 8.84479 20.5C8.84479 20.0818 9.01093 19.6807 9.30667 19.3849L11.3456 17.3462L9.30667 15.3074C9.01093 15.0116 8.84479 14.6105 8.84479 14.1923C8.84479 13.7741 9.01093 13.373 9.30667 13.0772C9.60241 12.7815 10.0035 12.6153 10.4218 12.6153C10.84 12.6153 11.2411 12.7815 11.5368 13.0772L13.5756 15.1162L15.6144 13.0772C15.9101 12.7815 16.3112 12.6153 16.7294 12.6153C17.1477 12.6153 17.5488 12.7815 17.8445 13.0772C18.1403 13.373 18.3064 13.7741 18.3064 14.1923C18.3064 14.6105 18.1403 15.0116 17.8445 15.3074Z" fill="#836370" />
<path fill-rule="evenodd" clip-rule="evenodd" d="M21.4602 37.8461C18.0295 37.8461 14.6758 36.8288 11.8232 34.9228C8.97065 33.0168 6.74735 30.3077 5.43446 27.1381C4.12157 23.9685 3.77806 20.4808 4.44736 17.1159C5.11667 13.7511 6.76873 10.6603 9.19463 8.23442C11.6205 5.80851 14.7113 4.15645 18.0761 3.48715C21.441 2.81784 24.9287 3.16135 28.0983 4.47424C31.2679 5.78713 33.977 8.01043 35.883 10.863C37.789 13.7155 38.8064 17.0693 38.8064 20.5C38.8011 25.0989 36.9719 29.5079 33.72 32.7598C30.4681 36.0117 26.0591 37.8409 21.4602 37.8461ZM23.427 32.0641C23.6869 31.6751 23.8256 31.2178 23.8256 30.75C23.8256 30.1227 23.5764 29.521 23.1328 29.0774C22.6892 28.6338 22.0875 28.3846 21.4602 28.3846C20.9924 28.3846 20.5351 28.5233 20.1461 28.7832C19.7571 29.0432 19.4539 29.4126 19.2749 29.8448C19.0958 30.277 19.049 30.7526 19.1403 31.2115C19.2315 31.6703 19.4568 32.0918 19.7876 32.4226C20.1184 32.7534 20.5399 32.9787 20.9987 33.0699C21.4576 33.1612 21.9332 33.1144 22.3654 32.9353C22.7976 32.7563 23.167 32.4531 23.427 32.0641ZM33.9556 19.8965C33.8763 19.7052 33.7602 19.5313 33.6137 19.3849L31.5748 17.3461L33.6137 15.3074C33.7602 15.161 33.8763 14.9871 33.9556 14.7958C34.0348 14.6045 34.0756 14.3994 34.0756 14.1923C34.0756 13.9852 34.0348 13.7802 33.9556 13.5888C33.8763 13.3975 33.7602 13.2237 33.6137 13.0772C33.4673 12.9308 33.2935 12.8146 33.1021 12.7354C32.9108 12.6561 32.7058 12.6153 32.4987 12.6153C32.2916 12.6153 32.0865 12.6561 31.8952 12.7354C31.7039 12.8146 31.53 12.9308 31.3836 13.0772L29.3448 15.1162L27.3061 13.0772C27.0103 12.7815 26.6092 12.6153 26.191 12.6153C25.7727 12.6153 25.3716 12.7815 25.0759 13.0772C24.7802 13.373 24.614 13.7741 24.614 14.1923C24.614 14.6105 24.7802 15.0116 25.0759 15.3074L27.1149 17.3461L25.0759 19.3849C24.9295 19.5313 24.8133 19.7052 24.7341 19.8965C24.6548 20.0878 24.614 20.2929 24.614 20.5C24.614 20.7071 24.6548 20.9121 24.7341 21.1035C24.8133 21.2948 24.9295 21.4686 25.0759 21.6151C25.2223 21.7615 25.3962 21.8777 25.5875 21.9569C25.7788 22.0362 25.9839 22.077 26.191 22.077C26.3981 22.077 26.6031 22.0362 26.7945 21.9569C26.9858 21.8777 27.1596 21.7615 27.3061 21.6151L29.3448 19.5761L31.3836 21.6151C31.53 21.7615 31.7039 21.8777 31.8952 21.9569C32.0865 22.0362 32.2916 22.077 32.4987 22.077C32.7058 22.077 32.9108 22.0362 33.1021 21.9569C33.2935 21.8777 33.4673 21.7615 33.6137 21.6151C33.7602 21.4686 33.8763 21.2948 33.9556 21.1035C34.0348 20.9121 34.0756 20.7071 34.0756 20.5C34.0756 20.2929 34.0348 20.0878 33.9556 19.8965ZM15.8056 17.3461L17.8445 15.3074C18.1403 15.0116 18.3064 14.6105 18.3064 14.1923C18.3064 13.7741 18.1403 13.373 17.8445 13.0772C17.5488 12.7815 17.1477 12.6153 16.7294 12.6153C16.3112 12.6153 15.9101 12.7815 15.6144 13.0772L13.5756 15.1162L11.5368 13.0772C11.2411 12.7815 10.84 12.6153 10.4218 12.6153C10.0035 12.6153 9.60241 12.7815 9.30667 13.0772C9.01093 13.373 8.84479 13.7741 8.84479 14.1923C8.84479 14.6105 9.01093 15.0116 9.30667 15.3074L11.3456 17.3461L9.30667 19.3849C9.01093 19.6807 8.84479 20.0818 8.84479 20.5C8.84479 20.9182 9.01093 21.3193 9.30667 21.6151C9.60241 21.9108 10.0035 22.077 10.4218 22.077C10.84 22.077 11.2411 21.9108 11.5368 21.6151L13.5756 19.5761L15.6144 21.6151C15.9101 21.9108 16.3112 22.077 16.7294 22.077C17.1477 22.077 17.5488 21.9108 17.8445 21.6151C18.1403 21.3193 18.3064 20.9182 18.3064 20.5C18.3064 20.0818 18.1403 19.6807 17.8445 19.3849L15.8056 17.3461Z" fill="current"/>
</svg>
