<svg width="42" height="41" viewBox="0 0 42 41" fill="none" xmlns="http://www.w3.org/2000/svg">
<path d="M11.7985 16.5577C11.7985 16.0899 11.9372 15.6325 12.1971 15.2436C12.457 14.8546 12.8265 14.5514 13.2587 14.3724C13.6909 14.1933 14.1665 14.1465 14.6253 14.2378C15.0842 14.329 15.5056 14.5543 15.8364 14.8851C16.1672 15.2159 16.3925 15.6374 16.4838 16.0962C16.5751 16.5551 16.5282 17.0307 16.3492 17.4629C16.1702 17.8951 15.867 18.2645 15.478 18.5244C15.089 18.7843 14.6317 18.9231 14.1639 18.9231C13.5365 18.9231 12.9349 18.6739 12.4913 18.2303C12.0477 17.7867 11.7985 17.185 11.7985 16.5577ZM28.3562 14.1923C27.8883 14.1923 27.431 14.331 27.042 14.5909C26.653 14.8509 26.3499 15.2203 26.1708 15.6525C25.9918 16.0847 25.945 16.5603 26.0362 17.0192C26.1275 17.478 26.3528 17.8995 26.6836 18.2303C27.0144 18.5611 27.4359 18.7864 27.8947 18.8776C28.3535 18.9689 28.8291 18.922 29.2614 18.743C29.6936 18.564 30.063 18.2608 30.3229 17.8718C30.5828 17.4828 30.7216 17.0255 30.7216 16.5577C30.7216 15.9304 30.4723 15.3287 30.0287 14.8851C29.5851 14.4415 28.9835 14.1923 28.3562 14.1923ZM41.76 20.5C41.76 24.5545 40.5577 28.518 38.3051 31.8892C36.0526 35.2604 32.8509 37.8879 29.105 39.4395C25.3591 40.9911 21.2373 41.3971 17.2607 40.6061C13.2841 39.8151 9.6313 37.8627 6.76433 34.9957C3.89735 32.1287 1.94492 28.476 1.15392 24.4993C0.362924 20.5227 0.768892 16.4009 2.32049 12.655C3.87208 8.9091 6.49962 5.70744 9.87083 3.45487C13.242 1.2023 17.2055 0 21.26 0C26.6951 0.00615622 31.9057 2.16795 35.7489 6.01111C39.5921 9.85427 41.7539 15.0649 41.76 20.5ZM38.6062 20.5C38.6062 17.0693 37.5888 13.7156 35.6828 10.863C33.7768 8.01043 31.0677 5.78713 27.8981 4.47424C24.7285 3.16135 21.2408 2.81784 17.8759 3.48715C14.5111 4.15645 11.4203 5.80851 8.99443 8.23442C6.56853 10.6603 4.91647 13.7511 4.24717 17.1159C3.57786 20.4808 3.92137 23.9685 5.23426 27.1381C6.54715 30.3077 8.77045 33.0168 11.623 34.9228C14.4756 36.8288 17.8293 37.8461 21.26 37.8461C25.8589 37.8409 30.2679 36.0117 33.5198 32.7598C36.7717 29.5079 38.6009 25.0989 38.6062 20.5V20.5ZM29.1446 25.2308H13.3754C12.9572 25.2308 12.5561 25.3969 12.2603 25.6926C11.9646 25.9884 11.7985 26.3895 11.7985 26.8077C11.7985 27.2259 11.9646 27.627 12.2603 27.9227C12.5561 28.2185 12.9572 28.3846 13.3754 28.3846H29.1446C29.5629 28.3846 29.964 28.2185 30.2597 27.9227C30.5554 27.627 30.7216 27.2259 30.7216 26.8077C30.7216 26.3895 30.5554 25.9884 30.2597 25.6926C29.964 25.3969 29.5629 25.2308 29.1446 25.2308Z" fill="#836370"/>
<path fill-rule="evenodd" clip-rule="evenodd" d="M38.6062 20.5C38.6062 17.0693 37.5888 13.7155 35.6828 10.863C33.7768 8.01043 31.0677 5.78713 27.8981 4.47424C24.7285 3.16135 21.2408 2.81784 17.8759 3.48715C14.5111 4.15645 11.4203 5.80851 8.99443 8.23442C6.56853 10.6603 4.91647 13.7511 4.24717 17.1159C3.57786 20.4808 3.92137 23.9685 5.23426 27.1381C6.54715 30.3077 8.77045 33.0168 11.623 34.9228C14.4756 36.8288 17.8293 37.8461 21.26 37.8461C25.8589 37.8409 30.2679 36.0117 33.5198 32.7598C36.7717 29.5079 38.6009 25.0989 38.6062 20.5ZM12.1971 15.2436C11.9372 15.6325 11.7985 16.0899 11.7985 16.5577C11.7985 17.185 12.0477 17.7867 12.4913 18.2303C12.9349 18.6739 13.5365 18.9231 14.1639 18.9231C14.6317 18.9231 15.089 18.7843 15.478 18.5244C15.867 18.2645 16.1702 17.8951 16.3492 17.4629C16.5282 17.0307 16.5751 16.5551 16.4838 16.0962C16.3925 15.6374 16.1672 15.2159 15.8364 14.8851C15.5056 14.5543 15.0842 14.329 14.6253 14.2378C14.1665 14.1465 13.6909 14.1933 13.2587 14.3724C12.8265 14.5514 12.457 14.8546 12.1971 15.2436ZM27.042 14.5909C27.431 14.331 27.8883 14.1923 28.3562 14.1923C28.9835 14.1923 29.5852 14.4415 30.0287 14.8851C30.4723 15.3287 30.7215 15.9303 30.7215 16.5577C30.7215 17.0255 30.5828 17.4828 30.3229 17.8718C30.063 18.2608 29.6936 18.564 29.2614 18.743C28.8291 18.922 28.3535 18.9689 27.8947 18.8776C27.4359 18.7864 27.0144 18.5611 26.6836 18.2303C26.3528 17.8995 26.1275 17.478 26.0362 17.0192C25.945 16.5603 25.9918 16.0847 26.1708 15.6525C26.3499 15.2203 26.653 14.8509 27.042 14.5909ZM13.3754 25.2308H29.1446C29.5629 25.2308 29.9639 25.3969 30.2597 25.6926C30.5554 25.9884 30.7215 26.3895 30.7215 26.8077C30.7215 27.2259 30.5554 27.627 30.2597 27.9227C29.9639 28.2185 29.5629 28.3846 29.1446 28.3846H13.3754C12.9572 28.3846 12.5561 28.2185 12.2603 27.9227C11.9646 27.627 11.7985 27.2259 11.7985 26.8077C11.7985 26.3895 11.9646 25.9884 12.2603 25.6926C12.5561 25.3969 12.9572 25.2308 13.3754 25.2308Z" fill="current" />
</svg>
