<svg width="42" height="41" viewBox="0 0 42 41" fill="none" xmlns="http://www.w3.org/2000/svg">
<path d="M27.2618 30.3375C29.0699 29.175 30.8437 27.0453 31.4579 25.6008C31.7543 24.9037 31.1661 24.3459 30.7335 24.0813C30.301 23.8168 29.2353 23.8235 28.8312 24.3459C28.0503 25.3553 26.9935 27.0719 25.5999 27.9442C24.2063 28.8165 22.5953 29.2788 20.9512 29.2782H20.5922H20.218C18.5928 29.2687 17.0018 28.8071 15.6235 27.9444C14.2299 27.0721 13.1731 25.3555 12.3922 24.346C11.9881 23.8237 10.9224 23.8169 10.4899 24.0815C10.0573 24.346 9.46905 24.9039 9.76548 25.601C10.3797 27.0454 12.1535 29.1752 13.9616 30.3377C15.7697 31.5002 17.8636 32.1409 20.0126 32.1891L21.2108 32.189C23.3598 32.1407 25.4537 31.5 27.2618 30.3375Z" fill="#FFFA81"/>
<path fill-rule="evenodd" clip-rule="evenodd" d="M11.2238 35.0831C13.1356 36.3749 15.2838 37.2761 17.5451 37.735C19.8063 38.1938 22.1359 38.2013 24.4001 37.7569C26.6642 37.3126 28.8182 36.4251 30.7382 35.1456C32.6583 33.8661 34.3066 32.2197 35.5883 30.3012C36.87 28.3826 37.76 26.2297 38.207 23.966C38.654 21.7024 38.6492 19.3728 38.193 17.111C37.7367 14.8493 36.838 12.7 35.5485 10.7866C34.2589 8.87332 32.6039 7.23371 30.6787 5.96205C26.8167 3.41119 22.102 2.493 17.565 3.40818C13.028 4.32337 9.03792 6.99749 6.46684 10.846C3.89576 14.6945 2.95285 19.4044 3.84423 23.9461C4.73562 28.4878 7.38878 32.4919 11.2238 35.0831ZM15.7186 19.6678C16.2659 19.1204 16.5734 18.3781 16.5734 17.6041C16.5734 16.83 16.2659 16.0877 15.7186 15.5403C15.1713 14.993 14.4289 14.6855 13.6549 14.6855C12.8809 14.6855 12.1385 14.993 11.5912 15.5403C11.0439 16.0877 10.7364 16.83 10.7364 17.6041C10.7364 18.3781 11.0439 19.1204 11.5912 19.6678C12.1385 20.2151 12.8809 20.5226 13.6549 20.5226C14.4289 20.5226 15.1713 20.2151 15.7186 19.6678ZM30.3112 19.6678C30.8586 19.1204 31.1661 18.3781 31.1661 17.6041C31.1661 16.83 30.8586 16.0877 30.3112 15.5403C29.7639 14.993 29.0216 14.6855 28.2475 14.6855C27.4735 14.6855 26.7311 14.993 26.1838 15.5403C25.6365 16.0877 25.329 16.83 25.329 17.6041C25.329 18.3781 25.6365 19.1204 26.1838 19.6678C26.7311 20.2151 27.4735 20.5226 28.2475 20.5226C29.0216 20.5226 29.7639 20.2151 30.3112 19.6678ZM31.4579 25.6008C30.8437 27.0453 29.0699 29.175 27.2618 30.3375C25.4537 31.5 23.3598 32.1407 21.2108 32.189L20.0126 32.1891C17.8636 32.1409 15.7697 31.5002 13.9616 30.3377C12.1535 29.1752 10.3797 27.0454 9.76548 25.601C9.46905 24.9039 10.0573 24.346 10.4899 24.0815C10.9224 23.8169 11.9881 23.8237 12.3922 24.346C13.1731 25.3555 14.2299 27.0721 15.6235 27.9444C17.0018 28.8071 18.5928 29.2687 20.218 29.2782H20.5922H20.9512C22.5953 29.2788 24.2063 28.8165 25.5999 27.9442C26.9935 27.0719 28.0503 25.3553 28.8312 24.3459C29.2353 23.8235 30.301 23.8168 30.7335 24.0813C31.1661 24.3459 31.7543 24.9037 31.4579 25.6008Z" fill="current"/>
<path fill-rule="evenodd" clip-rule="evenodd" d="M15.7186 19.6678C16.2659 19.1204 16.5734 18.3781 16.5734 17.6041C16.5734 16.83 16.2659 16.0877 15.7186 15.5403C15.1713 14.993 14.4289 14.6855 13.6549 14.6855C12.8809 14.6855 12.1385 14.993 11.5912 15.5403C11.0439 16.0877 10.7364 16.83 10.7364 17.6041C10.7364 18.3781 11.0439 19.1204 11.5912 19.6678C12.1385 20.2151 12.8809 20.5226 13.6549 20.5226C14.4289 20.5226 15.1713 20.2151 15.7186 19.6678ZM30.3112 19.6678C30.8586 19.1204 31.1661 18.3781 31.1661 17.6041C31.1661 16.83 30.8586 16.0877 30.3112 15.5403C29.7639 14.993 29.0216 14.6855 28.2475 14.6855C27.4735 14.6855 26.7311 14.993 26.1838 15.5403C25.6365 16.0877 25.329 16.83 25.329 17.6041C25.329 18.3781 25.6365 19.1204 26.1838 19.6678C26.7311 20.2151 27.4735 20.5226 28.2475 20.5226C29.0216 20.5226 29.7639 20.2151 30.3112 19.6678Z" fill="#FFFA81"/>
<path fill-rule="evenodd" clip-rule="evenodd" d="M9.60106 3.53676C11.8311 2.02008 14.3394 0.959948 16.9812 0.417522C19.623 -0.124904 22.3461 -0.138891 24.9933 0.376367C27.6406 0.891625 30.1596 1.92593 32.4051 3.41962C34.6506 4.91331 36.5782 6.83682 38.0766 9.0792C39.5749 11.3216 40.6145 13.8384 41.1353 16.4846C41.6561 19.1308 41.6478 21.8539 41.1109 24.4968C40.574 27.1398 39.5192 29.6502 38.0071 31.8835C36.4951 34.1167 34.5559 36.0284 32.3014 37.5084C27.7964 40.519 22.2801 41.6168 16.9658 40.5602C11.6515 39.5036 6.97456 36.3791 3.96393 31.8742C0.953292 27.3693 -0.144462 21.8529 0.912158 16.5386C1.96878 11.2243 5.09322 6.54739 9.59814 3.53676H9.60106ZM11.2238 35.0831C13.1356 36.3749 15.2838 37.2761 17.5451 37.735C19.8063 38.1938 22.1359 38.2013 24.4001 37.7569C26.6642 37.3126 28.8182 36.4251 30.7382 35.1456C32.6583 33.8661 34.3066 32.2197 35.5883 30.3012C36.87 28.3826 37.76 26.2297 38.207 23.966C38.654 21.7024 38.6492 19.3728 38.193 17.111C37.7367 14.8493 36.838 12.7 35.5485 10.7866C34.2589 8.87332 32.6039 7.23371 30.6787 5.96205C26.8167 3.41119 22.102 2.493 17.565 3.40818C13.028 4.32337 9.03792 6.99749 6.46684 10.846C3.89576 14.6945 2.95285 19.4044 3.84423 23.9461C4.73562 28.4878 7.38878 32.4919 11.2238 35.0831ZM16.5734 17.6041C16.5734 18.3781 16.2659 19.1204 15.7186 19.6678C15.1713 20.2151 14.4289 20.5226 13.6549 20.5226C12.8809 20.5226 12.1385 20.2151 11.5912 19.6678C11.0439 19.1204 10.7364 18.3781 10.7364 17.6041C10.7364 16.83 11.0439 16.0877 11.5912 15.5403C12.1385 14.993 12.8809 14.6855 13.6549 14.6855C14.4289 14.6855 15.1713 14.993 15.7186 15.5403C16.2659 16.0877 16.5734 16.83 16.5734 17.6041ZM31.1661 17.6041C31.1661 18.3781 30.8586 19.1204 30.3112 19.6678C29.7639 20.2151 29.0216 20.5226 28.2475 20.5226C27.4735 20.5226 26.7311 20.2151 26.1838 19.6678C25.6365 19.1204 25.329 18.3781 25.329 17.6041C25.329 16.83 25.6365 16.0877 26.1838 15.5403C26.7311 14.993 27.4735 14.6855 28.2475 14.6855C29.0216 14.6855 29.7639 14.993 30.3112 15.5403C30.8586 16.0877 31.1661 16.83 31.1661 17.6041Z" fill="#836370"/>
<path d="M27.2618 30.3375C29.0699 29.175 30.8437 27.0453 31.4579 25.6008C31.7543 24.9037 31.1661 24.3459 30.7335 24.0813C30.301 23.8168 29.2353 23.8235 28.8312 24.3459C28.0503 25.3553 26.9935 27.0719 25.5999 27.9442C24.2063 28.8165 22.5953 29.2788 20.9512 29.2782H20.5922H20.218C18.5928 29.2687 17.0018 28.8071 15.6235 27.9444C14.2299 27.0721 13.1731 25.3555 12.3922 24.346C11.9881 23.8237 10.9224 23.8169 10.4899 24.0815C10.0573 24.346 9.46905 24.9039 9.76548 25.601C10.3797 27.0454 12.1535 29.1752 13.9616 30.3377C15.7697 31.5002 17.8636 32.1409 20.0126 32.1891L21.2108 32.189C23.3598 32.1407 25.4537 31.5 27.2618 30.3375Z" fill="#836370"/>
</svg>
