<svg width="40" height="40" viewBox="0 0 40 40" fill="none" xmlns="http://www.w3.org/2000/svg">
<rect x="0.5" y="0.5" width="39" height="39" rx="19.5" fill="#E8E8E8" stroke="#847B9D"/>
<path d="M29.9318 9.52393C27.7951 9.52393 25.3952 10.7018 22.7989 13.025C20.9888 14.6446 19.4345 16.4999 18.3577 17.91C17.4579 17.6344 16.506 17.5736 15.5785 17.7327C14.651 17.8917 13.7736 18.2661 13.017 18.8257C12.2604 19.3854 11.6456 20.1147 11.2219 20.9551C10.7982 21.7955 10.5775 22.7236 10.5775 23.6648C10.5775 26.7955 8.94866 28.1909 8.86832 28.2578C8.73958 28.3623 8.64637 28.5041 8.60149 28.6637C8.55661 28.8233 8.56227 28.9929 8.61769 29.1492C8.67312 29.3055 8.77558 29.4407 8.91099 29.5364C9.04641 29.6321 9.20813 29.6834 9.37392 29.6834H16.5953C17.5364 29.6834 18.4643 29.4627 19.3046 29.039C20.1449 28.6152 20.8742 28.0003 21.4337 27.2436C21.9933 26.4868 22.3677 25.6094 22.5267 24.6817C22.6857 23.7541 22.6249 22.802 22.3493 21.9021C23.7591 20.8252 25.6143 19.2707 27.2338 17.4603C29.5566 14.8637 30.7342 12.4634 30.7342 10.3263C30.7342 10.1135 30.6496 9.90936 30.4992 9.75887C30.3487 9.60837 30.1446 9.52393 29.9318 9.52393ZM19.8491 18.6058C20.1809 18.1813 20.5212 17.7636 20.8697 17.3527C21.6715 17.8965 22.3627 18.5878 22.9065 19.3898C22.4957 19.7383 22.078 20.0786 21.6536 20.4105C21.1869 19.6877 20.5718 19.0725 19.8491 18.6058ZM24.1167 18.3182C23.5181 17.4765 22.7828 16.7411 21.9412 16.1424C23.9081 14.0174 26.5532 11.6912 29.0421 11.2163C28.5672 13.7055 26.2414 16.3511 24.1167 18.3182Z" fill="#7B738F"/>
</svg>
