<svg width="45" height="45" viewBox="0 0 45 45" fill="none" xmlns="http://www.w3.org/2000/svg">
<circle cx="22.5" cy="22.5" r="22" fill="white" stroke="#BBBBBB"/>
<path d="M23 20C22.4091 20 21.8239 20.1164 21.2779 20.3425C20.732 20.5687 20.2359 20.9002 19.818 21.318C19.4002 21.7359 19.0687 22.232 18.8425 22.7779C18.6164 23.3239 18.5 23.9091 18.5 24.5C18.5 25.0909 18.6164 25.6761 18.8425 26.2221C19.0687 26.768 19.4002 27.2641 19.818 27.682C20.2359 28.0998 20.732 28.4313 21.2779 28.6575C21.8239 28.8836 22.4091 29 23 29C24.1935 29 25.3381 28.5259 26.182 27.682C27.0259 26.8381 27.5 25.6935 27.5 24.5C27.5 23.3065 27.0259 22.1619 26.182 21.318C25.3381 20.4741 24.1935 20 23 20ZM35 15.5H31.4C31.1409 15.4882 30.8909 15.401 30.6807 15.2491C30.4704 15.0972 30.3091 14.8873 30.2165 14.645L29.285 11.8535C29.1917 11.6115 29.03 11.4019 28.8196 11.2504C28.6091 11.0988 28.3591 11.0118 28.1 11H17.9C17.405 11 16.871 11.384 16.7165 11.852L15.7835 14.645C15.6907 14.8872 15.5294 15.097 15.3192 15.2489C15.109 15.4007 14.859 15.488 14.6 15.5H11C9.35 15.5 8 16.85 8 18.5V32C8 33.65 9.35 35 11 35H35C36.65 35 38 33.65 38 32V18.5C38 16.85 36.65 15.5 35 15.5ZM23 32C21.0109 32 19.1032 31.2098 17.6967 29.8033C16.2902 28.3968 15.5 26.4891 15.5 24.5C15.5 22.5109 16.2902 20.6032 17.6967 19.1967C19.1032 17.7902 21.0109 17 23 17C24.9891 17 26.8968 17.7902 28.3033 19.1967C29.7098 20.6032 30.5 22.5109 30.5 24.5C30.5 26.4891 29.7098 28.3968 28.3033 29.8033C26.8968 31.2098 24.9891 32 23 32ZM34.25 20.3C33.9715 20.3 33.7045 20.1894 33.5075 19.9925C33.3106 19.7955 33.2 19.5285 33.2 19.25C33.2 18.9715 33.3106 18.7045 33.5075 18.5075C33.7045 18.3106 33.9715 18.2 34.25 18.2C34.5285 18.2 34.7955 18.3106 34.9925 18.5075C35.1894 18.7045 35.3 18.9715 35.3 19.25C35.3 19.5285 35.1894 19.7955 34.9925 19.9925C34.7955 20.1894 34.5285 20.3 34.25 20.3Z" fill="#BBBBBB"/>
</svg>
