<svg width="162" height="45" viewBox="0 0 162 45" fill="none" xmlns="http://www.w3.org/2000/svg">
<path d="M51.1802 23.09C51.0202 23.09 50.8602 23.05 50.7002 22.97C50.5602 22.89 50.4902 22.79 50.4902 22.67C50.4902 22.35 50.7302 22.14 51.2102 22.04C52.0102 21.86 52.5702 21.64 52.8902 21.38C53.2302 21.1 53.4002 20.66 53.4002 20.06V7.67C53.4002 6.59 53.3602 5.89 53.2802 5.57C53.2202 5.23 53.1002 5.02 52.9202 4.94C52.6802 4.82 52.2102 4.76 51.5102 4.76H50.8502C50.2302 4.76 49.6302 4.91 49.0502 5.21C48.4702 5.51 48.0102 5.9 47.6702 6.38C47.3702 6.82 47.0802 7.19 46.8002 7.49C46.5402 7.77 46.2802 7.91 46.0202 7.91C45.7402 7.91 45.6002 7.73 45.6002 7.37C45.6002 7.07 45.6602 6.82 45.7802 6.62C46.1802 5.84 46.4602 5.18 46.6202 4.64C46.8002 4.1 46.9202 3.49 46.9802 2.81C47.0402 2.29 47.2902 2.03 47.7302 2.03C47.8302 2.03 47.9302 2.1 48.0302 2.24C48.1502 2.38 48.2202 2.47 48.2402 2.51C48.4002 2.73 48.5502 2.91 48.6902 3.05C48.8702 3.19 49.1802 3.31 49.6202 3.41C50.0802 3.49 50.4902 3.53 50.8502 3.53H62.1302C62.5902 3.53 63.0002 3.49 63.3602 3.41C63.7402 3.31 64.0202 3.2 64.2002 3.08C64.3402 2.98 64.5502 2.82 64.8302 2.6C64.9502 2.48 65.0802 2.38 65.2202 2.3C65.3602 2.2 65.5002 2.15 65.6402 2.15C65.8602 2.15 65.9702 2.32 65.9702 2.66C65.9702 2.8 65.9502 3.01 65.9102 3.29C65.8102 3.65 65.7402 3.89 65.7002 4.01C65.6802 4.13 65.6002 4.45 65.4602 4.97C65.3402 5.47 65.2802 5.94 65.2802 6.38V6.95C65.2802 7.69 65.1102 8.06 64.7702 8.06C64.5902 8.06 64.4402 7.97 64.3202 7.79C64.2002 7.61 64.0702 7.3 63.9302 6.86C63.6902 6.12 63.3502 5.59 62.9102 5.27C62.4702 4.93 61.8302 4.76 60.9902 4.76H59.4302C59.0502 4.76 58.7602 4.84 58.5602 5C58.3602 5.14 58.2102 5.44 58.1102 5.9C58.0302 6.34 57.9902 7.02 57.9902 7.94V20.03C57.9902 20.59 58.1502 21.01 58.4702 21.29C58.7902 21.57 59.3502 21.82 60.1502 22.04C60.3902 22.12 60.5702 22.2 60.6902 22.28C60.8102 22.36 60.8702 22.48 60.8702 22.64C60.8702 22.78 60.8102 22.89 60.6902 22.97C60.5702 23.05 60.4202 23.09 60.2402 23.09C59.5002 23.09 58.7102 23.06 57.8702 23C56.7902 22.96 56.0602 22.94 55.6802 22.94C55.2802 22.94 54.5602 22.96 53.5202 23C52.7002 23.06 51.9202 23.09 51.1802 23.09ZM69.4296 23.09C69.0296 23.09 68.8296 22.98 68.8296 22.76C68.8296 22.64 68.8796 22.55 68.9796 22.49C69.0796 22.43 69.2596 22.36 69.5196 22.28C69.9196 22.16 70.2296 22.02 70.4496 21.86C70.6696 21.68 70.7896 21.41 70.8096 21.05V6.02C70.8096 4.74 70.3696 4.02 69.4896 3.86C69.3096 3.82 69.2196 3.68 69.2196 3.44C69.2196 3.26 69.2996 3.14 69.4596 3.08C71.0396 2.58 72.1496 2.19 72.7896 1.91C72.8696 1.87 72.9296 1.85 72.9696 1.85C73.1096 1.85 73.1796 1.92 73.1796 2.06C73.1796 2.16 73.1296 2.47 73.0296 2.99C72.9496 3.49 72.9096 4.54 72.9096 6.14V11.36C72.9096 11.66 72.9196 11.89 72.9396 12.05C72.9796 12.19 73.0396 12.33 73.1196 12.47C74.8196 11.21 76.3396 10.58 77.6796 10.58C78.6596 10.58 79.4696 10.97 80.1096 11.75C80.7696 12.53 81.0996 13.5 81.0996 14.66V20.96C81.0996 21.6 81.5096 22.04 82.3296 22.28C82.5696 22.34 82.7396 22.41 82.8396 22.49C82.9596 22.55 83.0196 22.64 83.0196 22.76C83.0196 22.98 82.8196 23.09 82.4196 23.09C81.9196 23.09 81.4996 23.06 81.1596 23C80.7596 22.96 80.3996 22.94 80.0796 22.94C79.7596 22.94 79.3996 22.96 78.9996 23C78.6796 23.06 78.2596 23.09 77.7396 23.09C77.3396 23.09 77.1396 22.98 77.1396 22.76C77.1396 22.64 77.1796 22.56 77.2596 22.52C77.3596 22.46 77.5496 22.38 77.8296 22.28C78.1896 22.16 78.4696 22 78.6696 21.8C78.8896 21.6 78.9996 21.32 78.9996 20.96V14.84C78.9996 14.36 78.8596 13.92 78.5796 13.52C78.2996 13.1 77.9396 12.77 77.4996 12.53C77.0796 12.27 76.6496 12.14 76.2096 12.14C75.7896 12.14 75.3296 12.2 74.8296 12.32C74.3496 12.44 73.9796 12.6 73.7196 12.8C73.3996 13.06 73.1796 13.34 73.0596 13.64C72.9596 13.92 72.9096 14.36 72.9096 14.96V21.05C72.9296 21.41 73.0396 21.68 73.2396 21.86C73.4396 22.02 73.7196 22.16 74.0796 22.28C74.2996 22.34 74.4596 22.41 74.5596 22.49C74.6796 22.55 74.7396 22.64 74.7396 22.76C74.7396 22.88 74.6896 22.96 74.5896 23C74.5096 23.06 74.3596 23.09 74.1396 23.09C73.6196 23.09 73.2096 23.06 72.9096 23C72.5496 22.96 72.1996 22.94 71.8596 22.94C71.5396 22.94 71.1596 22.96 70.7196 23C70.3996 23.06 69.9696 23.09 69.4296 23.09ZM92.489 23.45C91.409 23.45 90.449 23.18 89.609 22.64C88.789 22.1 88.149 21.34 87.689 20.36C87.229 19.36 86.999 18.21 86.999 16.91C86.999 15.79 87.259 14.74 87.779 13.76C88.319 12.78 89.029 12.01 89.909 11.45C90.789 10.87 91.749 10.58 92.789 10.58C93.989 10.58 94.969 10.94 95.729 11.66C96.509 12.36 96.899 13.26 96.899 14.36C96.899 14.98 96.599 15.29 95.999 15.29H89.669C89.389 15.29 89.189 15.37 89.069 15.53C88.969 15.67 88.919 15.96 88.919 16.4C88.919 17.34 89.119 18.21 89.519 19.01C89.939 19.81 90.499 20.45 91.199 20.93C91.919 21.39 92.699 21.62 93.539 21.62C94.719 21.62 95.699 21.17 96.479 20.27C96.599 20.11 96.709 20.03 96.809 20.03C96.969 20.03 97.049 20.13 97.049 20.33C97.049 20.71 96.869 21.13 96.509 21.59C96.069 22.17 95.489 22.63 94.769 22.97C94.049 23.29 93.289 23.45 92.489 23.45ZM92.459 14.36C93.399 14.36 94.139 14.31 94.679 14.21C94.839 14.19 94.919 13.97 94.919 13.55C94.919 12.97 94.659 12.48 94.139 12.08C93.639 11.66 93.039 11.45 92.339 11.45C91.899 11.45 91.439 11.59 90.959 11.87C90.499 12.13 90.119 12.46 89.819 12.86C89.519 13.26 89.369 13.66 89.369 14.06C89.369 14.26 89.489 14.36 89.729 14.36H92.459ZM56.4602 43.21C55.5002 43.21 54.1802 43.17 52.5002 43.09C51.6002 43.03 50.8902 43 50.3702 43L48.3902 43.03C47.3502 43.07 46.6002 43.09 46.1402 43.09C45.9802 43.09 45.8402 43.05 45.7202 42.97C45.6002 42.89 45.5402 42.79 45.5402 42.67C45.5402 42.33 45.7502 42.12 46.1702 42.04C46.9502 41.88 47.4702 41.67 47.7302 41.41C48.0102 41.15 48.1502 40.71 48.1502 40.09V26.47C48.1502 25.81 48.0202 25.35 47.7602 25.09C47.5002 24.83 46.9702 24.61 46.1702 24.43C45.7502 24.33 45.5402 24.12 45.5402 23.8C45.5402 23.66 45.6002 23.55 45.7202 23.47C45.8402 23.39 45.9802 23.35 46.1402 23.35C46.8802 23.35 47.6202 23.38 48.3602 23.44C49.3202 23.48 50.0002 23.5 50.4002 23.5C50.7402 23.5 51.6702 23.46 53.1902 23.38C54.5502 23.28 55.6602 23.23 56.5202 23.23C58.5202 23.23 60.3302 23.64 61.9502 24.46C63.5902 25.28 64.8702 26.43 65.7902 27.91C66.7302 29.39 67.2002 31.06 67.2002 32.92C67.2002 34.74 66.7702 36.44 65.9102 38.02C65.0502 39.58 63.8002 40.84 62.1602 41.8C60.5402 42.74 58.6402 43.21 56.4602 43.21ZM56.0102 41.68C58.0102 41.68 59.5302 40.97 60.5702 39.55C61.6302 38.13 62.1602 36.19 62.1602 33.73C62.1602 31.95 61.9002 30.39 61.3802 29.05C60.8802 27.71 60.1402 26.67 59.1602 25.93C58.1802 25.19 57.0202 24.82 55.6802 24.82C54.5802 24.82 53.8202 24.89 53.4002 25.03C52.9802 25.15 52.7702 25.46 52.7702 25.96V39.04C52.7702 40 53.0402 40.68 53.5802 41.08C54.1202 41.48 54.9302 41.68 56.0102 41.68ZM71.8389 43.09C71.4389 43.09 71.2389 42.98 71.2389 42.76C71.2389 42.62 71.2889 42.53 71.3889 42.49C71.4889 42.43 71.6689 42.36 71.9289 42.28C72.6889 42.1 73.0689 41.72 73.0689 41.14V34.69C73.0689 34.09 72.9789 33.61 72.7989 33.25C72.6189 32.87 72.2989 32.63 71.8389 32.53C71.7589 32.51 71.6889 32.46 71.6289 32.38C71.5689 32.3 71.5389 32.22 71.5389 32.14C71.5389 32.06 71.5689 31.99 71.6289 31.93C71.6889 31.85 71.7489 31.8 71.8089 31.78C72.6089 31.52 73.5989 31.03 74.7789 30.31C74.9989 30.17 75.1489 30.1 75.2289 30.1C75.3289 30.1 75.3789 30.17 75.3789 30.31C75.3789 30.85 75.3489 31.6 75.2889 32.56C75.2889 32.6 75.3089 32.62 75.3489 32.62C75.8489 32.02 76.4089 31.53 77.0289 31.15C77.6489 30.77 78.2389 30.58 78.7989 30.58C79.2189 30.58 79.5589 30.67 79.8189 30.85C80.0989 31.03 80.2389 31.26 80.2389 31.54C80.2389 31.86 80.1089 32.2 79.8489 32.56C79.6089 32.92 79.3489 33.1 79.0689 33.1C78.8689 33.1 78.5889 33.01 78.2289 32.83C78.1689 32.81 78.0289 32.76 77.8089 32.68C77.6089 32.6 77.4289 32.56 77.2689 32.56C76.6889 32.56 76.1989 32.75 75.7989 33.13C75.3989 33.51 75.1989 34.16 75.1989 35.08V41.14C75.1989 41.4 75.3289 41.62 75.5889 41.8C75.8489 41.96 76.2489 42.12 76.7889 42.28C77.0289 42.36 77.1989 42.43 77.2989 42.49C77.4189 42.55 77.4789 42.64 77.4789 42.76C77.4789 42.98 77.2789 43.09 76.8789 43.09C76.3389 43.09 75.8689 43.06 75.4689 43C74.9889 42.96 74.5889 42.94 74.2689 42.94C73.9489 42.94 73.5689 42.96 73.1289 43C72.8089 43.06 72.3789 43.09 71.8389 43.09ZM89.1785 43.45C88.0985 43.45 87.1385 43.18 86.2985 42.64C85.4785 42.1 84.8385 41.34 84.3785 40.36C83.9185 39.36 83.6885 38.21 83.6885 36.91C83.6885 35.79 83.9485 34.74 84.4685 33.76C85.0085 32.78 85.7185 32.01 86.5985 31.45C87.4785 30.87 88.4385 30.58 89.4785 30.58C90.6785 30.58 91.6585 30.94 92.4185 31.66C93.1985 32.36 93.5885 33.26 93.5885 34.36C93.5885 34.98 93.2885 35.29 92.6885 35.29H86.3585C86.0785 35.29 85.8785 35.37 85.7585 35.53C85.6585 35.67 85.6085 35.96 85.6085 36.4C85.6085 37.34 85.8085 38.21 86.2085 39.01C86.6285 39.81 87.1885 40.45 87.8885 40.93C88.6085 41.39 89.3885 41.62 90.2285 41.62C91.4085 41.62 92.3885 41.17 93.1685 40.27C93.2885 40.11 93.3985 40.03 93.4985 40.03C93.6585 40.03 93.7385 40.13 93.7385 40.33C93.7385 40.71 93.5585 41.13 93.1985 41.59C92.7585 42.17 92.1785 42.63 91.4585 42.97C90.7385 43.29 89.9785 43.45 89.1785 43.45ZM89.1485 34.36C90.0885 34.36 90.8285 34.31 91.3685 34.21C91.5285 34.19 91.6085 33.97 91.6085 33.55C91.6085 32.97 91.3485 32.48 90.8285 32.08C90.3285 31.66 89.7285 31.45 89.0285 31.45C88.5885 31.45 88.1285 31.59 87.6485 31.87C87.1885 32.13 86.8085 32.46 86.5085 32.86C86.2085 33.26 86.0585 33.66 86.0585 34.06C86.0585 34.26 86.1785 34.36 86.4185 34.36H89.1485ZM100.388 43.42C100.048 43.42 99.6879 43.28 99.3079 43C98.9279 42.74 98.6079 42.41 98.3479 42.01C98.1079 41.59 97.9879 41.2 97.9879 40.84C97.9879 40.22 98.1479 39.73 98.4679 39.37C98.8079 39.01 99.3579 38.67 100.118 38.35L103.178 37.09C103.558 36.93 103.788 36.79 103.868 36.67C103.948 36.55 103.998 36.29 104.018 35.89L104.078 33.97C104.098 33.43 103.948 32.98 103.628 32.62C103.308 32.24 102.868 32.05 102.308 32.05C102.008 32.05 101.708 32.1 101.408 32.2C101.108 32.3 100.858 32.43 100.658 32.59C100.458 32.73 100.358 33.02 100.358 33.46L100.388 34C100.388 34.16 100.128 34.38 99.6079 34.66C99.1079 34.92 98.7079 35.05 98.4079 35.05C98.3079 35.05 98.2279 35.03 98.1679 34.99C98.1079 34.93 98.0779 34.86 98.0779 34.78C98.0779 34.46 98.1779 34.12 98.3779 33.76C98.5979 33.38 98.8979 33.03 99.2779 32.71C99.9579 32.09 100.718 31.58 101.558 31.18C102.418 30.78 103.148 30.58 103.748 30.58C104.468 30.58 105.058 30.84 105.518 31.36C105.998 31.86 106.228 32.49 106.208 33.25L106.058 40.45C106.038 40.87 106.128 41.21 106.328 41.47C106.528 41.73 106.798 41.86 107.138 41.86C107.638 41.86 108.008 41.75 108.248 41.53C108.348 41.43 108.428 41.38 108.488 41.38C108.588 41.38 108.668 41.41 108.728 41.47C108.788 41.53 108.818 41.61 108.818 41.71C108.818 41.79 108.788 41.9 108.728 42.04C108.668 42.16 108.588 42.27 108.488 42.37C108.168 42.69 107.818 42.94 107.438 43.12C107.078 43.32 106.738 43.42 106.418 43.42C105.498 43.42 104.768 42.9 104.228 41.86H104.138C103.478 42.4 102.848 42.79 102.248 43.03C101.648 43.29 101.028 43.42 100.388 43.42ZM101.798 41.98C102.498 41.98 103.088 41.74 103.568 41.26C103.688 41.14 103.778 40.99 103.838 40.81C103.898 40.63 103.938 40.37 103.958 40.03L104.018 38.56V38.38C104.018 38.22 103.998 38.11 103.958 38.05C103.918 37.97 103.848 37.93 103.748 37.93C103.628 37.93 103.428 37.98 103.148 38.08C102.148 38.44 101.428 38.82 100.988 39.22C100.548 39.62 100.328 40.01 100.328 40.39C100.328 40.89 100.468 41.28 100.748 41.56C101.048 41.84 101.398 41.98 101.798 41.98ZM112.58 43.09C112.18 43.09 111.98 42.98 111.98 42.76C111.98 42.64 112.03 42.55 112.13 42.49C112.25 42.43 112.43 42.36 112.67 42.28C113.11 42.14 113.43 42.01 113.63 41.89C113.85 41.75 113.96 41.5 113.96 41.14V34.69C113.96 34.05 113.88 33.55 113.72 33.19C113.58 32.83 113.28 32.61 112.82 32.53C112.64 32.49 112.55 32.36 112.55 32.14C112.55 31.94 112.63 31.82 112.79 31.78C113.33 31.64 113.76 31.5 114.08 31.36C114.4 31.2 114.77 30.97 115.19 30.67L115.85 30.22C115.87 30.22 115.9 30.2 115.94 30.16C116 30.12 116.06 30.1 116.12 30.1C116.16 30.1 116.2 30.12 116.24 30.16C116.28 30.2 116.3 30.25 116.3 30.31L116.24 30.94C116.22 31.1 116.2 31.3 116.18 31.54C116.16 31.76 116.15 31.99 116.15 32.23C116.15 32.43 116.17 32.55 116.21 32.59H116.27C117.65 31.25 119.21 30.58 120.95 30.58C121.69 30.58 122.3 30.74 122.78 31.06C123.26 31.38 123.65 31.91 123.95 32.65H124.04C125.6 31.27 127.23 30.58 128.93 30.58C129.85 30.58 130.58 31 131.12 31.84C131.66 32.66 131.93 33.63 131.93 34.75V41.14C131.93 41.5 132.03 41.75 132.23 41.89C132.45 42.01 132.78 42.14 133.22 42.28C133.46 42.36 133.63 42.43 133.73 42.49C133.85 42.55 133.91 42.64 133.91 42.76C133.91 42.88 133.86 42.96 133.76 43C133.68 43.06 133.53 43.09 133.31 43.09C132.77 43.09 132.35 43.06 132.05 43C131.65 42.96 131.28 42.94 130.94 42.94C130.58 42.94 130.2 42.96 129.8 43C129.44 43.06 128.99 43.09 128.45 43.09C128.05 43.09 127.85 42.98 127.85 42.76C127.85 42.62 127.9 42.52 128 42.46C128.12 42.4 128.3 42.34 128.54 42.28C128.96 42.18 129.28 42.06 129.5 41.92C129.72 41.76 129.83 41.5 129.83 41.14V34.84C129.83 34.1 129.59 33.44 129.11 32.86C128.63 32.28 128.07 31.99 127.43 31.99C126.37 31.99 125.5 32.26 124.82 32.8C124.26 33.24 123.98 33.96 123.98 34.96V41.14C123.98 41.5 124.1 41.76 124.34 41.92C124.58 42.06 124.91 42.18 125.33 42.28C125.79 42.38 126.02 42.54 126.02 42.76C126.02 42.98 125.82 43.09 125.42 43.09C124.88 43.09 124.44 43.06 124.1 43C123.66 42.96 123.28 42.94 122.96 42.94C122.6 42.94 122.22 42.96 121.82 43C121.46 43.06 121.01 43.09 120.47 43.09C120.07 43.09 119.87 42.98 119.87 42.76C119.87 42.64 119.91 42.56 119.99 42.52C120.09 42.46 120.19 42.41 120.29 42.37C120.41 42.33 120.5 42.3 120.56 42.28C121.02 42.14 121.35 42.01 121.55 41.89C121.77 41.75 121.88 41.5 121.88 41.14V34.84C121.88 34.1 121.64 33.44 121.16 32.86C120.68 32.28 120.12 31.99 119.48 31.99C118.42 31.99 117.55 32.26 116.87 32.8C116.33 33.2 116.06 33.92 116.06 34.96V41.14C116.06 41.5 116.16 41.75 116.36 41.89C116.58 42.01 116.91 42.14 117.35 42.28C117.41 42.3 117.5 42.33 117.62 42.37C117.76 42.41 117.86 42.46 117.92 42.52C118 42.58 118.04 42.66 118.04 42.76C118.04 42.98 117.84 43.09 117.44 43.09C116.92 43.09 116.49 43.06 116.15 43C115.71 42.96 115.33 42.94 115.01 42.94C114.69 42.94 114.31 42.96 113.87 43C113.55 43.06 113.12 43.09 112.58 43.09ZM143.4 43.45C142.32 43.45 141.36 43.18 140.52 42.64C139.7 42.1 139.06 41.34 138.6 40.36C138.14 39.36 137.91 38.21 137.91 36.91C137.91 35.79 138.17 34.74 138.69 33.76C139.23 32.78 139.94 32.01 140.82 31.45C141.7 30.87 142.66 30.58 143.7 30.58C144.9 30.58 145.88 30.94 146.64 31.66C147.42 32.36 147.81 33.26 147.81 34.36C147.81 34.98 147.51 35.29 146.91 35.29H140.58C140.3 35.29 140.1 35.37 139.98 35.53C139.88 35.67 139.83 35.96 139.83 36.4C139.83 37.34 140.03 38.21 140.43 39.01C140.85 39.81 141.41 40.45 142.11 40.93C142.83 41.39 143.61 41.62 144.45 41.62C145.63 41.62 146.61 41.17 147.39 40.27C147.51 40.11 147.62 40.03 147.72 40.03C147.88 40.03 147.96 40.13 147.96 40.33C147.96 40.71 147.78 41.13 147.42 41.59C146.98 42.17 146.4 42.63 145.68 42.97C144.96 43.29 144.2 43.45 143.4 43.45ZM143.37 34.36C144.31 34.36 145.05 34.31 145.59 34.21C145.75 34.19 145.83 33.97 145.83 33.55C145.83 32.97 145.57 32.48 145.05 32.08C144.55 31.66 143.95 31.45 143.25 31.45C142.81 31.45 142.35 31.59 141.87 31.87C141.41 32.13 141.03 32.46 140.73 32.86C140.43 33.26 140.28 33.66 140.28 34.06C140.28 34.26 140.4 34.36 140.64 34.36H143.37ZM152.569 43.09C152.169 43.09 151.969 42.98 151.969 42.76C151.969 42.62 152.019 42.53 152.119 42.49C152.219 42.43 152.399 42.36 152.659 42.28C153.419 42.1 153.799 41.72 153.799 41.14V34.69C153.799 34.09 153.709 33.61 153.529 33.25C153.349 32.87 153.029 32.63 152.569 32.53C152.489 32.51 152.419 32.46 152.359 32.38C152.299 32.3 152.269 32.22 152.269 32.14C152.269 32.06 152.299 31.99 152.359 31.93C152.419 31.85 152.479 31.8 152.539 31.78C153.339 31.52 154.329 31.03 155.509 30.31C155.729 30.17 155.879 30.1 155.959 30.1C156.059 30.1 156.109 30.17 156.109 30.31C156.109 30.85 156.079 31.6 156.019 32.56C156.019 32.6 156.039 32.62 156.079 32.62C156.579 32.02 157.139 31.53 157.759 31.15C158.379 30.77 158.969 30.58 159.529 30.58C159.949 30.58 160.289 30.67 160.549 30.85C160.829 31.03 160.969 31.26 160.969 31.54C160.969 31.86 160.839 32.2 160.579 32.56C160.339 32.92 160.079 33.1 159.799 33.1C159.599 33.1 159.319 33.01 158.959 32.83C158.899 32.81 158.759 32.76 158.539 32.68C158.339 32.6 158.159 32.56 157.999 32.56C157.419 32.56 156.929 32.75 156.529 33.13C156.129 33.51 155.929 34.16 155.929 35.08V41.14C155.929 41.4 156.059 41.62 156.319 41.8C156.579 41.96 156.979 42.12 157.519 42.28C157.759 42.36 157.929 42.43 158.029 42.49C158.149 42.55 158.209 42.64 158.209 42.76C158.209 42.98 158.009 43.09 157.609 43.09C157.069 43.09 156.599 43.06 156.199 43C155.719 42.96 155.319 42.94 154.999 42.94C154.679 42.94 154.299 42.96 153.859 43C153.539 43.06 153.109 43.09 152.569 43.09Z" fill="#FEF3F3" fill-opacity="0.6"/>
<path d="M28.5422 40.957C18.5529 40.957 10.4522 32.6932 10.4522 22.5007C10.4522 12.3068 18.5529 4.04297 28.5422 4.04297C30.0975 4.04297 31.6064 4.24407 33.0471 4.62024C29.7759 2.51949 25.9696 1.40383 22.0819 1.40625C10.6631 1.40625 1.40649 10.8506 1.40649 22.5007C1.40649 34.1501 10.6631 43.5938 22.0819 43.5938C26.1108 43.5938 29.869 42.4139 33.0471 40.3805C31.6064 40.7566 30.0975 40.957 28.5422 40.957Z" fill="#FEFFBD" fill-opacity="0.8"/>
<path d="M35.0249 26.6991L40.3216 30.4102L38.3205 24.3753L43.5939 20.6333L37.0612 20.6143L35.0249 14.5906L32.988 20.6143L26.4553 20.6333L31.7301 24.3753L29.7276 30.4102L35.0249 26.6991Z" fill="#FEFFBD" fill-opacity="0.8"/>
</svg>
