<svg width="30" height="30" viewBox="0 0 30 30" fill="none" xmlns="http://www.w3.org/2000/svg">
<path d="M15 1.875C18.481 1.875 21.8194 3.25781 24.2808 5.71922C26.7422 8.18064 28.125 11.519 28.125 15C28.125 18.481 26.7422 21.8194 24.2808 24.2808C21.8194 26.7422 18.481 28.125 15 28.125C11.519 28.125 8.18064 26.7422 5.71922 24.2808C3.25781 21.8194 1.875 18.481 1.875 15C1.875 11.519 3.25781 8.18064 5.71922 5.71922C8.18064 3.25781 11.519 1.875 15 1.875V1.875ZM15 13.4081L11.9513 10.3594C11.7402 10.1483 11.4538 10.0297 11.1553 10.0297C10.8568 10.0297 10.5705 10.1483 10.3594 10.3594C10.1483 10.5705 10.0297 10.8568 10.0297 11.1553C10.0297 11.4538 10.1483 11.7402 10.3594 11.9513L13.4081 15L10.3594 18.0488C10.2549 18.1533 10.1719 18.2774 10.1154 18.4139C10.0588 18.5505 10.0297 18.6969 10.0297 18.8447C10.0297 18.9925 10.0588 19.1389 10.1154 19.2754C10.1719 19.412 10.2549 19.5361 10.3594 19.6406C10.4639 19.7451 10.588 19.8281 10.7246 19.8846C10.8611 19.9412 11.0075 19.9703 11.1553 19.9703C11.3031 19.9703 11.4495 19.9412 11.5861 19.8846C11.7226 19.8281 11.8467 19.7451 11.9513 19.6406L15 16.5919L18.0488 19.6406C18.1533 19.7451 18.2774 19.8281 18.4139 19.8846C18.5505 19.9412 18.6969 19.9703 18.8447 19.9703C18.9925 19.9703 19.1389 19.9412 19.2754 19.8846C19.412 19.8281 19.5361 19.7451 19.6406 19.6406C19.7451 19.5361 19.8281 19.412 19.8846 19.2754C19.9412 19.1389 19.9703 18.9925 19.9703 18.8447C19.9703 18.6969 19.9412 18.5505 19.8846 18.4139C19.8281 18.2774 19.7451 18.1533 19.6406 18.0488L16.5919 15L19.6406 11.9513C19.7451 11.8467 19.8281 11.7226 19.8846 11.5861C19.9412 11.4495 19.9703 11.3031 19.9703 11.1553C19.9703 11.0075 19.9412 10.8611 19.8846 10.7246C19.8281 10.588 19.7451 10.4639 19.6406 10.3594C19.5361 10.2549 19.412 10.1719 19.2754 10.1154C19.1389 10.0588 18.9925 10.0297 18.8447 10.0297C18.6969 10.0297 18.5505 10.0588 18.4139 10.1154C18.2774 10.1719 18.1533 10.2549 18.0488 10.3594L15 13.4081Z" fill="#DF899D"/>
</svg>
