<svg width="40" height="40" viewBox="0 0 40 40" fill="none" xmlns="http://www.w3.org/2000/svg">
<rect x="0.5" y="0.5" width="39" height="39" rx="19.5" fill="#E8E8E8" stroke="#847B9D"/>
<path d="M20.6787 10.1207C21.061 9.73855 21.5793 9.52389 22.1198 9.52389C22.6603 9.52389 23.1787 9.73855 23.5609 10.1207L29.3267 15.8851C29.7088 16.2673 29.9235 16.7857 29.9235 17.3262C29.9235 17.8667 29.7088 18.385 29.3267 18.7673L19.5336 28.5603H26.5128C26.693 28.5603 26.8658 28.6319 26.9933 28.7593C27.1207 28.8868 27.1923 29.0596 27.1923 29.2398C27.1923 29.42 27.1207 29.5928 26.9933 29.7202C26.8658 29.8476 26.693 29.9192 26.5128 29.9192H17.4355C17.15 29.9347 16.8645 29.8899 16.5976 29.7875C16.3306 29.6852 16.0883 29.5277 15.8863 29.3254L10.1206 23.5596C9.73847 23.1774 9.5238 22.659 9.5238 22.1185C9.5238 21.5781 9.73847 21.0597 10.1206 20.6775L20.6787 10.1193V10.1207ZM22.6002 11.0801C22.4728 10.9527 22.3 10.8811 22.1198 10.8811C21.9397 10.8811 21.7669 10.9527 21.6395 11.0801L14.3345 18.385L21.061 25.1115L28.366 17.8065C28.4933 17.6791 28.5649 17.5063 28.5649 17.3262C28.5649 17.146 28.4933 16.9732 28.366 16.8458L22.5988 11.0801H22.6002ZM20.1003 26.0736L13.3738 19.3471L11.0813 21.6395C10.954 21.767 10.8824 21.9397 10.8824 22.1199C10.8824 22.3001 10.954 22.4729 11.0813 22.6003L16.8471 28.366C16.9745 28.4934 17.1473 28.565 17.3274 28.565C17.5076 28.565 17.6804 28.4934 17.8078 28.366L20.1003 26.0736Z" fill="#7B738F"/>
<path d="M22.6002 11.0801C22.4728 10.9527 22.3 10.8811 22.1198 10.8811C21.9397 10.8811 21.7669 10.9527 21.6395 11.0801L14.3345 18.385L21.061 25.1115L28.366 17.8065C28.4933 17.6791 28.5649 17.5063 28.5649 17.3262C28.5649 17.146 28.4933 16.9732 28.366 16.8458L22.5988 11.0801H22.6002Z" fill="#7B738F"/>
</svg>
