<svg width="40" height="40" viewBox="0 0 40 40" fill="none" xmlns="http://www.w3.org/2000/svg">
<rect x="0.5" y="0.5" width="39" height="39" rx="19.5" fill="#E8E8E8" stroke="#847B9D"/>
<path d="M12 11.9V27.1C12 27.6039 12.2093 28.0872 12.5818 28.4435C12.9543 28.7998 13.4595 29 13.9864 29H25.9045C26.4314 29 26.9366 28.7998 27.3091 28.4435C27.6816 28.0872 27.8909 27.6039 27.8909 27.1V16.0249C27.8909 15.7718 27.838 15.5212 27.7353 15.2879C27.6326 15.0546 27.4823 14.8433 27.293 14.6664L22.8833 10.5415C22.5122 10.1944 22.0138 10.0001 21.4948 10H13.9864C13.4595 10 12.9543 10.2002 12.5818 10.5565C12.2093 10.9128 12 11.3961 12 11.9V11.9Z" stroke="#7B738F" stroke-width="2" stroke-linecap="round" stroke-linejoin="round"/>
<path d="M21.9319 10V13.8C21.9319 14.3039 22.1412 14.7872 22.5137 15.1435C22.8862 15.4998 23.3914 15.7 23.9182 15.7H27.891" stroke="#7B738F" stroke-width="2" stroke-linejoin="round"/>
</svg>
