<svg width="40" height="40" viewBox="0 0 40 40" fill="none" xmlns="http://www.w3.org/2000/svg">
<rect x="0.5" y="0.5" width="39" height="39" rx="19.5" fill="#E8E8E8" stroke="#847B9D"/>
<path d="M18.6027 9.27913C18.6027 9.0914 18.5281 8.91136 18.3954 8.77861C18.2627 8.64587 18.0826 8.57129 17.8949 8.57129C17.7072 8.57129 17.5272 8.64587 17.3945 8.77861C17.2617 8.91136 17.1872 9.0914 17.1872 9.27913V11.4027C16.897 11.5046 16.6252 11.6716 16.3945 11.9038L9.1939 19.1026C8.99659 19.2998 8.84007 19.534 8.73329 19.7917C8.6265 20.0494 8.57153 20.3257 8.57153 20.6046C8.57153 20.8836 8.6265 21.1599 8.73329 21.4176C8.84007 21.6753 8.99659 21.9095 9.1939 22.1067L15.3301 28.2437C15.5272 28.441 15.7614 28.5976 16.019 28.7044C16.2767 28.8112 16.553 28.8661 16.8319 28.8661C17.1108 28.8661 17.387 28.8112 17.6447 28.7044C17.9024 28.5976 18.1366 28.441 18.3337 28.2437L25.5315 21.0449C25.7288 20.8477 25.8853 20.6136 25.9921 20.3558C26.0989 20.0981 26.1539 19.8219 26.1539 19.5429C26.1539 19.2639 26.0989 18.9876 25.9921 18.7299C25.8853 18.4722 25.7288 18.238 25.5315 18.0408L19.3968 11.9038C19.173 11.6794 18.9016 11.5081 18.6027 11.4027V9.27913ZM24.6454 19.8968H10.4027L17.1872 13.1114V14.9419C17.1872 15.1296 17.2617 15.3097 17.3945 15.4424C17.5272 15.5752 17.7072 15.6497 17.8949 15.6497C18.0826 15.6497 18.2627 15.5752 18.3954 15.4424C18.5281 15.3097 18.6027 15.1296 18.6027 14.9419V13.1114L24.5336 19.0431C24.6435 19.1533 24.714 19.2967 24.7342 19.451C24.7544 19.6053 24.7232 19.762 24.6454 19.8968V19.8968Z" fill="#7B738F"/>
<path d="M28.5336 21.8679C28.4592 21.74 28.3527 21.634 28.2245 21.5603C28.0963 21.4865 27.9511 21.4478 27.8032 21.4478C27.6554 21.4478 27.5101 21.4865 27.3819 21.5603C27.2538 21.634 27.1472 21.74 27.0728 21.8679L24.7344 25.8785C23.3515 28.2469 25.06 31.2227 27.8032 31.2227C30.545 31.2227 32.2549 28.2469 30.872 25.8785L28.5336 21.8679Z" fill="#7B738F"/>
</svg>
