<svg width="40" height="40" viewBox="0 0 40 40" fill="none" xmlns="http://www.w3.org/2000/svg">
<rect x="0.5" y="0.5" width="39" height="39" rx="19.5" fill="#E8E8E8" stroke="#847B9D"/>
<path d="M11.6239 30.7694H28.376C29.0107 30.7694 29.6194 30.5173 30.0682 30.0685C30.517 29.6197 30.7692 29.011 30.7692 28.3763V15.2139L24.7863 9.23096H11.6239C10.9892 9.23096 10.3805 9.48309 9.93165 9.9319C9.48285 10.3807 9.23071 10.9894 9.23071 11.6241V28.3763C9.23071 29.011 9.48285 29.6197 9.93165 30.0685C10.3805 30.5173 10.9892 30.7694 11.6239 30.7694ZM14.017 11.6241H18.8034V14.0173H21.1965V11.6241H23.5897V16.4104H14.017V11.6241ZM14.017 21.1968H25.9829V28.3763H14.017V21.1968Z" fill="#7B738F"/>
</svg>
