<svg width="34" height="34" viewBox="0 0 44 44" fill="none" xmlns="http://www.w3.org/2000/svg">
<path d="M18.9167 37.2497C22.9843 37.2488 26.9348 35.8871 30.139 33.3813L40.2131 43.4555L43.4536 40.2151L33.3794 30.1409C35.8865 26.9364 37.249 22.9851 37.25 18.9163C37.25 8.8078 29.0252 0.583008 18.9167 0.583008C8.80814 0.583008 0.583344 8.8078 0.583344 18.9163C0.583344 29.0249 8.80814 37.2497 18.9167 37.2497ZM18.9167 5.16634C26.4998 5.16634 32.6667 11.3332 32.6667 18.9163C32.6667 26.4995 26.4998 32.6663 18.9167 32.6663C11.3336 32.6663 5.16668 26.4995 5.16668 18.9163C5.16668 11.3332 11.3336 5.16634 18.9167 5.16634Z" fill="#595764"/>
</svg>
