<svg width="50" height="51" viewBox="0 0 70 71" fill="none" xmlns="http://www.w3.org/2000/svg">
<path d="M69.815 25.1335C69.595 24.4856 69.1901 23.9162 68.6502 23.4957C68.1103 23.0753 67.4591 22.8221 66.777 22.7675L46.8234 21.182L38.1888 2.0684C37.9138 1.45279 37.4666 0.929917 36.901 0.562891C36.3354 0.195865 35.6757 0.000370579 35.0014 5.26328e-07C34.3272 -0.000369526 33.6673 0.194401 33.1013 0.560806C32.5353 0.927211 32.0874 1.44959 31.8118 2.0649L23.1772 21.182L3.22361 22.7675C2.5532 22.8206 1.91229 23.0658 1.37754 23.4736C0.842799 23.8814 0.43687 24.4346 0.208319 25.0671C-0.0202314 25.6996 -0.0617262 26.3846 0.0887997 27.04C0.239326 27.6955 0.575498 28.2937 1.0571 28.763L15.8027 43.1376L10.5877 65.7198C10.4293 66.4033 10.4801 67.1187 10.7333 67.773C10.9866 68.4274 11.4307 68.9905 12.008 69.3893C12.5853 69.7881 13.2691 70.0042 13.9707 70.0096C14.6723 70.0149 15.3594 69.8093 15.9427 69.4193L35.0003 56.7142L54.0579 69.4193C54.6541 69.8151 55.3572 70.0189 56.0726 70.0032C56.7881 69.9875 57.4816 69.7531 58.0598 69.3315C58.6381 68.9099 59.0733 68.3214 59.3071 67.645C59.5409 66.9687 59.5619 66.2369 59.3674 65.5483L52.9659 43.1481L68.842 28.8611C69.8815 27.923 70.263 26.46 69.815 25.1335V25.1335Z" fill="#FFDD67"/>
</svg>
