<svg width="53" height="50" viewBox="0 0 53 50" fill="none" xmlns="http://www.w3.org/2000/svg">
<path d="M51.9968 18.6511C51.9118 18.4058 51.7524 18.1931 51.5409 18.0427C51.3293 17.8922 51.0761 17.8114 50.8165 17.8115H33.2113L27.2118 0.833314C27.1256 0.5896 26.9659 0.378602 26.7548 0.229367C26.5438 0.0801328 26.2916 0 26.0331 0C25.7746 0 25.5224 0.0801328 25.3113 0.229367C25.1002 0.378602 24.9406 0.5896 24.8544 0.833314L18.8543 17.8115H1.25089C0.718898 17.8115 0.24504 18.1485 0.0687498 18.6511C-0.0161432 18.8966 -0.0225763 19.1625 0.0503409 19.4118C0.123258 19.6611 0.271915 19.8816 0.475717 20.0427L14.2201 30.9258L8.06869 48.3335C7.98367 48.5762 7.97547 48.8393 8.04521 49.0869C8.11495 49.3345 8.25925 49.5546 8.45848 49.7172C8.65771 49.8799 8.90221 49.9773 9.15873 49.9962C9.41526 50.015 9.67137 49.9544 9.89223 49.8226L26.0321 40.1404L42.1721 49.8226C42.3929 49.9546 42.6491 50.0154 42.9058 49.9967C43.1624 49.9779 43.4071 49.8806 43.6064 49.7178C43.8058 49.5551 43.9502 49.3349 44.0199 49.0872C44.0897 48.8395 44.0814 48.5763 43.9962 48.3335L37.8448 30.9258L51.593 20.0427C51.7965 19.8814 51.9448 19.6608 52.0171 19.4114C52.0895 19.162 52.0824 18.8963 51.9968 18.6511Z" fill="#FFDD67"/>
</svg>
